# xmcd
#
# Track frame offsets: 
#        150
#        14335
#        34222
#        53591
#        75152
#        92561
#        115451
#        133281
#        152890
#        174165
#        190446
#        207322
#        223462
#        243372
#        264889
#
# Disc length: 3799 seconds
#
# Revision: 1
# Processed by: cddbd v1.5.2PL0 Copyright (c) Steve Scherf et al.
# Submitted via: ExactAudioCopyFreeDBPlugin 1.0
#
DISCID=cd0ed50f
DTITLE=Bone Thugs-N-Harmony - Strength and Loyalty
DYEAR=2007
DGENRE=Hip-Hop
TTITLE0=Flow Motion
TTITLE1=Bump In The Trunk (feat. Swizz Beatz)
TTITLE2=Wind Blow
TTITLE3=I Tried (feat. Akon)
TTITLE4=Lil Love (feat. Mariah Carey and Bow Wow)
TTITLE5=C-Town (feat. Twista)
TTITLE6=Order My Steps (Dear Lord) (feat. Yolanda Adams)
TTITLE7=Streets (feat. The Game and will.i.am)
TTITLE8=9mm
TTITLE9=Gun Blast
TTITLE10=Candy Paint
TTITLE11=So Good So Right (feat. Felecia)
TTITLE12=Sounds The Same
TTITLE13=Never Forget Me (feat. Akon)
TTITLE14=Just Vibe (Hidden Bonus Track)
EXTD=
EXTT0=
EXTT1=
EXTT2=
EXTT3=
EXTT4=
EXTT5=
EXTT6=
EXTT7=
EXTT8=
EXTT9=
EXTT10=
EXTT11=
EXTT12=
EXTT13=
EXTT14=
PLAYORDER=
